<svg width="1107" height="1105" viewBox="0 0 1107 1105" fill="none" xmlns="http://www.w3.org/2000/svg">
<g clip-path="url(#clip0_41_1151)">
<path d="M487 1106C479.646 1106 472.292 1106 464.464 1105.6C462.355 1104.47 460.768 1103.59 459.074 1103.03C445.685 1098.65 435.523 1089.45 425.72 1080.02C417.78 1072.38 410.69 1063.86 403.224 1055.72C399.212 1051.35 395.397 1046.77 391.152 1042.64C382.591 1034.3 374.548 1025.16 364.931 1018.24C348.807 1006.64 329.69 1003.38 310.173 1003.09C299.599 1002.93 289.014 1003.8 278.43 1003.97C262.624 1004.22 246.835 1004.17 231.215 1001.03C215.348 997.845 202.091 990.701 192.986 976.882C183.496 962.479 179.839 945.983 176.012 929.558C171.959 912.167 168.415 894.645 163.879 877.383C159.04 858.97 149.31 843.101 133.449 832.389C118.167 822.068 101.821 813.314 85.8612 804.011C71.5506 795.669 57.2824 787.388 45.6311 775.244C34.7424 763.895 29.3826 750.338 29.1227 734.95C28.8576 719.253 33.3046 704.276 37.9139 689.409C43.843 670.284 50.0309 651.228 55.3984 631.946C58.6101 620.407 57.0293 608.597 54.528 596.988C50.4746 578.177 39.065 562.955 30.092 546.525C22.1042 531.899 14.4562 517.087 6.75194 502.308C4.66052 498.296 2.90804 494.107 1 490C1 490 1 489.5 1.35548 489.148C1.47398 487.531 1.23699 486.266 1 485C1 479.645 1 474.29 1.38538 468.331C2.18469 458.975 6.60776 451.667 11.036 444.672C21.5715 428.029 37.1686 415.998 51.0902 402.472C61.5415 392.317 72.9993 383.122 82.8086 372.402C97.6256 356.209 103.549 336.131 103.927 314.484C104.271 294.829 103.691 275.156 104.136 255.505C104.345 246.252 105.237 236.869 107.17 227.834C110.544 212.057 118.784 199.379 133.14 190.909C148.965 181.572 166.629 178.167 184.096 174.019C199.902 170.266 215.867 167.117 231.541 162.884C252.092 157.335 268.32 145.386 279.38 127.056C290.006 109.443 300.069 91.4899 310.685 73.8704C317.547 62.4813 325.249 51.8006 335.429 42.8508C351.991 28.2906 371.396 26.3958 391.404 30.4862C407.99 33.8771 424.092 39.723 440.319 44.7687C458.067 50.2873 475.331 57.1414 494.625 56.2045C511.291 55.3953 526.202 50.2129 540.372 42.0928C555.987 33.1447 571.432 23.8977 587.098 15.0401C598.082 8.82965 609.676 3.96519 622 1C627.688 1 633.376 1 639.667 1.38477C646.402 3.59924 653.045 4.47462 658.571 7.43439C676.43 16.9999 688.992 32.7216 702.621 47.1407C713.547 58.6986 723.892 70.8717 735.48 81.72C752.629 97.7753 774.289 102.893 797.067 103.904C803.622 104.195 810.227 103.051 816.81 103.052C837.584 103.056 858.456 101.785 878.997 106.063C890.019 108.359 900.032 112.723 908.436 120.769C918.533 130.436 924.46 142.415 927.832 155.456C934.07 179.583 939.078 204.024 945.084 228.214C949.652 246.615 959.302 262.626 974.616 273.505C991.072 285.195 1009.07 294.745 1026.61 304.873C1041.52 313.486 1056.19 322.287 1067.33 335.814C1075.18 345.344 1079.35 356.228 1080.03 368.577C1081.07 387.314 1075.36 404.756 1070.29 422.377C1064.97 440.85 1056.05 458.21 1053.69 477.603C1051.92 492.116 1053.12 506.225 1058.01 519.984C1064.86 539.238 1077.54 555.352 1086.82 573.302C1091.61 582.558 1096.64 591.687 1101.42 600.95C1103.78 605.545 1105.82 610.311 1108 615C1108 615 1108 615.5 1107.68 615.813C1107.58 616.751 1107.79 617.375 1108 618C1108 626.354 1108 634.708 1107.64 643.628C1106.92 644.545 1106.35 644.844 1106.25 645.258C1102.71 659.477 1093.69 670.349 1083.86 680.434C1074.31 690.236 1063.95 699.252 1053.92 708.586C1050.3 711.949 1046.77 715.431 1042.93 718.516C1031.97 727.308 1022.58 737.405 1016.02 749.922C1008.01 765.195 1005.27 781.715 1005.07 798.711C1004.98 806.788 1005.89 814.872 1005.96 822.956C1006.11 842.358 1006.72 861.803 1002.01 880.885C999.403 891.461 994.575 901.024 986.777 908.467C977.299 917.515 965.432 922.845 952.795 925.964C928.914 931.857 904.887 937.16 881.009 943.066C865.497 946.902 851.477 954.29 840.805 966.107C833.093 974.647 827.065 984.805 820.902 994.627C808.768 1013.96 799.735 1035.2 785.018 1052.97C777.849 1061.62 769.77 1069.28 759.395 1073.76C746.371 1079.39 732.401 1079.72 718.955 1076.72C702.085 1072.95 685.633 1067.31 668.991 1062.51C655.598 1058.65 642.41 1053.22 628.741 1051.36C605.961 1048.27 584.878 1054.87 565.294 1067.03C549.471 1076.86 533.327 1086.26 516.782 1094.8C507.421 1099.63 496.963 1102.34 487 1106ZM263.41 739.93C263.598 740.191 263.842 740.428 263.966 740.716C272.336 760.17 285.402 775.714 304.625 784.677C321.868 792.717 339.711 799.652 357.723 805.805C374.394 811.5 391.575 815.762 408.654 820.182C420.345 823.207 432.172 825.85 444.072 827.882C456.889 830.071 469.838 831.576 482.774 832.961C497.583 834.547 512.42 836.356 527.284 836.814C543.175 837.305 559.118 836.496 575.027 835.94C584.707 835.601 594.4 834.982 604.025 833.923C616.133 832.59 628.184 830.725 640.248 829.009C662.788 825.803 684.714 819.988 706.399 813.204C736.82 803.688 765.88 791.021 793.821 775.686C818.341 762.228 839.208 744.758 855.013 721.497C866.03 705.282 872.446 687.993 870.145 667.828C868.162 650.458 860.103 636.295 848.984 623.639C836.758 609.723 821.865 600.407 802.94 597.815C789.619 595.991 777.001 597.458 764.831 602.704C754.664 607.086 745.021 612.815 734.643 616.549C711.734 624.792 688.692 632.781 665.346 639.662C649.007 644.477 632.154 647.693 615.386 650.86C602.945 653.21 590.303 654.632 577.695 655.928C561.724 657.571 545.713 659.48 529.69 659.803C507.456 660.252 485.191 659.485 462.947 658.927C453.767 658.697 444.563 658.021 435.45 656.901C421.92 655.237 408.436 653.157 394.981 650.957C381.421 648.74 367.862 646.44 354.41 643.658C342.102 641.111 329.894 640.148 317.366 641.915C299.935 644.372 284.863 650.783 273.553 664.88C263.296 677.665 257.978 692.246 257.05 708.45C256.437 719.157 259.65 729.237 263.41 739.93ZM464.966 368.714C462.601 363.647 460.762 358.246 457.784 353.568C440.627 326.617 411.413 319.416 383.819 334.79C365.89 344.78 360.017 362.291 358.152 381.251C356.802 394.979 358.366 408.573 363.949 421.524C368.847 432.887 374.669 443.661 384.965 450.888C396.25 458.81 408.776 461.375 422.771 459.182C444.114 455.837 457.888 444.235 465.315 424.302C468.93 414.599 469.939 404.58 468.902 394.436C468.05 386.092 466.334 377.836 464.966 368.714ZM634 358.589C633.999 365.083 633.816 371.583 634.036 378.069C634.505 391.878 638.39 404.681 645.81 416.393C651.608 425.544 658.964 433.554 668.837 437.642C679.798 442.18 691.647 443.014 703.544 440.042C718.351 436.343 729.677 428.446 736.214 414.358C743.094 399.529 746.48 384.246 744.128 367.695C741.826 351.503 735.436 337.309 724.658 325.363C713.025 312.469 698.229 306.961 680.647 308.911C669.27 310.173 659.485 314.687 651.342 322.324C641.218 331.819 635.807 343.945 634 358.589Z" fill="black"/>
</g>
<defs>
<clipPath id="clip0_41_1151">
<rect width="1107" height="1105" fill="white"/>
</clipPath>
</defs>
</svg>
